<?xml version="1.0" standalone="no"?>
<!DOCTYPE svg PUBLIC "-//W3C//DTD SVG 1.1//EN" "http://www.w3.org/Graphics/SVG/1.1/DTD/svg11.dtd" >
<svg xmlns="http://www.w3.org/2000/svg" xmlns:xlink="http://www.w3.org/1999/xlink" version="1.1">
<metadata></metadata>
<defs>
<font id="scmp-weather-iconweathericons" horiz-adv-x="512" >
<font-face units-per-em="512" ascent="480" descent="-32" />
<missing-glyph horiz-adv-x="500" />
<glyph horiz-adv-x="0" />
<glyph unicode="&#xd;" />
<glyph unicode="A" d="M363 362q-4 4 -8 0l-30 -30q-30 20 -65 20t-59 -26q-25 -25 -37.5 -68.5t-14 -70.5t-0.5 -34q0 -5 5 -5h4q115 0 169 52q50 48 6 124l30 30q3 3 0 8zM319 209q-46 -45 -159 -50q0 109 49 159q21 22 51 22q29 0 57 -17l-28 -27h-41q-6 0 -6 -6q0 -5 6 -5h30l-71 -72 q-3 -3 0 -8q4 -4 8 0l31 32v-33q0 -5 6 -5q5 0 5 5v44l67 67q8 -13 13 -27.5t2.5 -38t-20.5 -40.5z" />
<glyph unicode="B" d="M346 211q-5 0 -5 -5v-59q0 -5 -4 -5q-5 0 -5 5v47q0 15 -15 15q-6 0 -10.5 -4.5t-4.5 -10.5v-4q0 -4 -4 -4t-4 4v14q0 6 -4.5 10.5t-10.5 4.5t-10.5 -4.5t-4.5 -10.5v-31q0 -4 -4 -4t-4 4v61q0 15 -15 15q-5 0 -5 -5t5 -5q4 0 4 -4v-61q0 -6 4.5 -10.5t10.5 -4.5 t10.5 4.5t4.5 10.5v30q0 5 4 5t4 -5v-13q0 -6 4.5 -10.5t10.5 -4.5q15 0 15 15v4q0 4 4 4q5 0 5 -4v-48q0 -15 15 -15q14 0 14 15v59q0 5 -5 5zM351 271q0 24 -17 41t-41 17h-46v40h44q5 0 5 5t-5 5h-98q-5 0 -5 -5t5 -5h44v-40h-66v17q0 5 -5 5t-5 -5v-97q0 -5 5 -5t5 5v17 h116v-36q0 -5 6 -5h53q5 0 5 5v41zM341 236h-43v33q0 8 -8 8h-119v42h122q20 0 33.5 -14t13.5 -34z" />
<glyph unicode="C" d="M371 239q-2 6 -7 4l-51 -14l-45 26l45 26l51 -13h1q5 0 6 4q2 5 -4 7l-39 11l38 22q6 2 2 8q-3 5 -8 2l-38 -22l10 39q2 5 -4 7q-5 2 -7 -4l-14 -50l-45 -26v52l37 36q5 4 0 9q-4 4 -8 0l-29 -29v44q0 6 -5 6q-6 0 -6 -6v-44l-29 29q-4 4 -8 0q-3 -5 0 -9l37 -36v-52 l-45 26l-14 50q-2 6 -7 4q-6 -2 -4 -7l10 -39l-38 22q-5 3 -8 -2q-4 -6 2 -8l38 -22l-39 -11q-6 -2 -4 -7q1 -4 6 -4h2l50 13l45 -26l-45 -26l-50 14q-6 2 -8 -4q-2 -7 4 -7l39 -11l-38 -22q-5 -3 -2 -8q1 -3 5 -3q2 0 3 1l38 22l-10 -39q-2 -5 4 -7h2q4 0 5 4l14 50l45 26 v-52l-37 -36q-3 -5 0 -9q2 -2 4 -2t4 2l29 29v-44q0 -6 6 -6q5 0 5 6v44l29 -29q2 -2 4 -2t4 2q5 4 0 9l-37 36v52l45 -26l14 -50q1 -4 6 -4h1q6 2 4 7l-10 39l38 -22q1 -1 3 -1q3 0 5 3q3 5 -2 8l-38 22l39 11q6 0 4 7z" />
<glyph unicode="D" d="M196 194l-2 1v123q0 8 -6 8t-6 -8v-123l-2 -1q-12 -5 -12 -18q0 -8 6 -14t14 -6t14 6t6 14q0 13 -12 18zM310 319q-16 17 -39 17t-39 -17q-6 -4 0 -8q4 -4 8 0q13 13 31 13t31 -13t13 -31t-13 -31t-31 -13t-31 13q-4 4 -8 0q-6 -4 0 -8q15 -17 39 -17t39 17q16 16 16 39 t-16 39zM269 351q6 0 6 6v21q0 6 -6 6t-6 -6v-21q0 -6 6 -6zM269 209q-6 0 -6 -6v-21q0 -5 6 -5t6 5v21q0 6 -6 6zM328 321q2 0 4 2l14 14q4 5 0 9t-8 0l-14 -15q-6 -4 0 -8q2 -2 4 -2zM369 286h-21q-6 0 -6 -6t6 -6h21q6 0 6 6t-6 6zM332 230q-4 4 -8 0t0 -9l14 -14 q2 -2 4 -2t4 2q6 4 0 8zM217 217v118q0 12 -8.5 20.5t-20.5 8.5t-20.5 -8.5t-8.5 -20.5v-118q-20 -14 -20 -40q0 -20 14.5 -35t34.5 -15q21 0 35.5 15t14.5 35q0 25 -21 40zM188 139q-16 0 -27 11t-11 27q0 21 18 32q3 1 3 5v121q0 7 5 12t12 5t12 -5t5 -12v-121q0 -4 3 -5 q18 -11 18 -32q0 -16 -11 -27t-27 -11z" />
<glyph unicode="E" d="M361 278q-2 6 -7 4l-33 -8l-26 15l26 15l33 -9h1q4 0 6 4q2 7 -4 7l-22 6l22 12q6 4 2 8q-3 5 -8 3l-21 -13l5 22q2 5 -4 7q-5 2 -7 -4l-9 -33l-26 -15v30l24 24q4 4 0 8q-4 6 -8 0l-16 -15v24q0 6 -6 6t-6 -6v-24l-15 15q-4 5 -9 0q-4 -4 0 -8l24 -24v-30l-21 12 q-5 3 -8 -2q-2 -6 2 -8l21 -12l-21 -12q-4 -4 -2 -8q2 -3 5 -3h3l21 13v-31l-24 -24q-4 -4 0 -8q2 -2 4 -2q1 0 5 2l15 16v-25q0 -6 6 -6t6 6v25l16 -16q2 -2 4 -2t4 2q4 4 0 8l-24 24v31l26 -16l9 -32q2 -5 6 -5q1 0 1 1q6 0 4 7l-5 21l21 -12q1 -1 3 -1q4 0 5 3q3 5 -2 8 l-22 12l22 6q6 2 4 7zM209 201l-1 1v42q0 7 -6 7q-7 0 -7 -7v-42l-1 -1q-12 -5 -12 -18q0 -8 6 -14t14 -6t13.5 6t5.5 14q0 13 -12 18zM230 224v118q0 12 -8.5 20.5t-19.5 8.5q-12 0 -20.5 -8.5t-8.5 -20.5v-118q-21 -15 -21 -40q0 -20 14.5 -34.5t35.5 -14.5 q20 0 34.5 14.5t14.5 34.5q0 25 -21 40zM202 146q-16 0 -27 11t-11 27q0 22 18 32q2 2 2 5v121q0 17 18 17q7 0 12 -5t5 -12v-121q0 -3 2 -5q18 -10 18 -32q0 -16 -11 -27t-26 -11z" />
<glyph unicode="F" d="M353 264h-39v38q0 6 -5 6q-6 0 -6 -6v-38h-38q-6 0 -6 -6q0 -5 6 -5h38v-39q0 -5 6 -5q5 0 5 5v39h39q5 0 5 5q0 6 -5 6zM212 204l-1 1v87q0 7 -7 7q-6 0 -6 -7v-87l-1 -1q-12 -4 -12 -18q0 -8 5.5 -14t13.5 -6t14 6t6 14q0 14 -12 18zM233 227v118q0 12 -8.5 20.5 t-20.5 8.5q-11 0 -19.5 -8.5t-8.5 -20.5v-118q-21 -15 -21 -40q0 -20 14.5 -35t34.5 -15q21 0 35.5 15t14.5 35q0 25 -21 40zM204 149q-15 0 -26 11t-11 27q0 22 18 32q2 2 2 5v121q0 7 5 12t12 5t12.5 -5t5.5 -12v-121q0 -3 2 -5q18 -10 18 -32q0 -16 -11 -27t-27 -11z" />
<glyph unicode="G" d="M353 257h-88q-6 0 -6 -5q0 -6 6 -6h88q5 0 5 6q0 5 -5 5zM212 204l-1 1v41q0 8 -7 8q-6 0 -6 -8v-41l-1 -1q-12 -4 -12 -18q0 -8 5.5 -14t13.5 -6t14 6t6 14q0 14 -12 18zM233 227v118q0 12 -8.5 20.5t-20.5 8.5q-11 0 -19.5 -8.5t-8.5 -20.5v-118q-21 -15 -21 -40 q0 -20 14.5 -35t34.5 -15q21 0 35.5 15t14.5 35q0 25 -21 40zM204 149q-15 0 -26 11t-11 27q0 22 18 32q2 2 2 5v121q0 7 5 12t12 5t12.5 -5t5.5 -12v-121q0 -3 2 -5q18 -10 18 -32q0 -16 -11 -27t-27 -11z" />
<glyph unicode="H" d="M358 336l-19 -31h35v-142h33v173h-49zM177 349h-71v-45h71v-142h46v142h71v45h-117z" />
<glyph unicode="I" d="M417 243q-9 12 -25 16q11 5 18 16q7 8 7 21q0 18 -15 32q-13 13 -35 13q-24 0 -40 -16q-11 -13 -14 -31h32q1 7 8 12q8 4 13 4q6 0 13 -5q5 -5 5 -12q0 -4 -4 -10q-2 -4 -9 -7q-4 -2 -17 -4v-28q18 0 29 -8q10 -9 10 -20t-7 -18q-8 -8 -19 -8q-12 0 -19 7q-8 8 -9 20h-32 q2 -28 17 -42q15 -15 41 -15q27 0 43 16q18 16 18 40q0 15 -9 27zM204 350h-45v-142h-72v-45h188v45h-71v142z" />
<glyph unicode="J" d="M90 165h179l-89 89zM90 261h179l-89 89zM416 239q-6 11 -18 19q7 9 13 18q3 9 3 17q0 13 -6 25q-6 9 -18 18q-12 6 -27 6t-27 -6t-18 -18q-7 -10 -7 -24q0 -11 4 -19q5 -10 12 -16q-12 -9 -18 -21q-6 -10 -6 -24q0 -16 7 -29q7 -12 20 -18q12 -6 33 -6q20 0 32 6 q11 5 20 19q8 14 8 28t-7 25zM349 305q5 5 13 5q7 0 14 -5q5 -5 5 -14t-5 -14t-14 -5q-8 0 -13 5q-6 6 -6 14t6 14zM383 198q-7 -6 -20 -6t-20 7q-8 8 -8 18q0 9 8 17q8 7 20 7t19 -7q8 -7 8 -18t-7 -18z" />
<glyph unicode="K" d="M90 214h179l-89 89zM416 243q-6 13 -18 20q7 7 13 17q3 9 3 18q0 14 -6 24q-8 12 -18 18q-12 6 -27 6t-27 -6t-18 -17q-7 -11 -7 -25q0 -11 4 -19q7 -12 12 -16q-11 -9 -18 -20q-6 -12 -6 -25q0 -17 7 -28q7 -12 20 -19q12 -6 33 -6q20 0 32 6q12 7 20 19q8 14 8 28 q0 15 -7 25zM349 309q4 5 13 5t14 -5q5 -4 5 -13q0 -10 -5 -15t-14 -5q-8 0 -13 6q-6 4 -6 13t6 14zM383 203q-7 -7 -20 -7t-20 7q-8 8 -8 18q0 9 8 17q8 7 20 7t19 -7q8 -7 8 -18t-7 -17z" />
<glyph unicode="L" d="M180 261l89 89h-179zM180 165l89 89h-179zM416 239q-6 13 -18 20q7 7 13 17q3 9 3 17q0 13 -6 25q-6 9 -18 18q-12 6 -27 6t-27 -6t-18 -18q-7 -10 -7 -24q0 -11 4 -19q5 -10 12 -16q-12 -9 -18 -21q-6 -10 -6 -24q0 -16 7 -29q7 -12 20 -18q12 -6 33 -6q20 0 32 6 q11 5 20 19q8 14 8 28t-7 25zM349 305q5 5 13 5q7 0 14 -5q5 -5 5 -14t-5 -14t-14 -5q-8 0 -13 5q-6 6 -6 14t6 14zM383 198q-7 -6 -20 -6t-20 7q-8 8 -8 18q0 9 8 17q8 7 20 7t19 -7q8 -7 8 -18t-7 -18z" />
<glyph unicode="M" d="M180 197l89 89h-179zM416 243q-6 13 -18 20q10 10 13 17q3 9 3 18q0 14 -6 24q-8 12 -18 18q-12 6 -27 6t-27 -6t-18 -17q-7 -11 -7 -25q0 -11 4 -19q7 -12 12 -16q-11 -9 -18 -20q-6 -12 -6 -25q0 -17 7 -28q7 -12 20 -19q12 -6 33 -6q20 0 32 6q12 7 20 19q8 14 8 28 q0 15 -7 25zM349 309q4 5 13 5t14 -5q5 -4 5 -13q0 -10 -5 -15t-14 -5q-8 0 -13 6q-6 4 -6 13q0 8 6 14zM383 203q-7 -7 -20 -7t-20 7q-8 8 -8 18q0 9 8 17q8 7 20 7t19 -7q8 -7 8 -18t-7 -17z" />
<glyph unicode="N" d="M271 168l-89 90l-89 -90h178zM93 347l89 -89l89 89h-178zM405 329q-15 16 -39 16q-23 0 -38 -15q-16 -16 -16 -39t16 -39q15 -15 37 -15l-30 -59l28 -14l44 87q7 13 11 25q2 5 2 16q0 20 -15 37zM382 274q-6 -6 -15 -6q-10 0 -16 6q-7 7 -7 17q0 8 7 17q7 7 16 7 q6 0 15 -7q6 -7 6 -17q0 -9 -6 -17z" />
<glyph unicode="O" d="M258 306h36v-141h32v172h-49zM475 304q-7 19 -21 28q-15 9 -33 9q-31 0 -45 -23q-15 -21 -15 -69q0 -35 7 -52q7 -19 21 -28q13 -9 33 -9t32 9q13 9 21 28q7 18 7 54q0 35 -7 53zM441 203q-7 -12 -19 -12t-20 12t-8 45q0 26 3 39q3 11 10 18q7 5 15 5q13 0 20 -13 q7 -11 7 -47q0 -33 -8 -47zM147 351h-45v-72h-71v-45h71v-71h45v71h72v45h-72v72z" />
<glyph unicode="P" d="M248 232q-10 0 -10 9v115q0 9 -9 9h-37q-10 0 -10 -9v-115q0 -9 -9 -9h-41q-10 0 -3 -7l75 -75q6 -7 13 0l75 75q5 7 -3 7h-41zM372 223v121q0 10 -7 17t-17 7q-19 0 -23 -20v-4v-121q-19 -13 -19 -35q0 -17 12.5 -29.5t29.5 -12.5q18 0 30.5 12.5t12.5 29.5q0 22 -19 35 zM337 345v1q2 9 11 9q12 0 12 -11v-98h-23v98v1z" />
<glyph unicode="Q" d="M234 380q27 -34 -38 -104q-16 -16 -21 -39q-2 -8 -2 -12v-4q-1 -2 -1 -6q0 -19 7 -33q16 -38 56 -49q-7 17 -7 39q0 50 29 69q29 -19 29 -69q0 -23 -7 -38q27 8 45 30t18 51q0 40 -27 81t-54 62z" />
<glyph unicode="R" d="M359 243l-48 -12l-43 24l43 25l48 -13h2q5 0 5 4q2 7 -4 7l-37 10l37 22q4 2 2 7q-3 5 -8 2l-37 -21l10 37q2 7 -4 7q-5 2 -7 -4l-13 -48l-43 -25v50l36 35q3 5 0 8q-5 5 -8 0l-28 -27v42q0 6 -5 6q-6 0 -6 -6v-42l-27 27q-5 5 -8 0q-5 -3 0 -8l35 -35v-50l-43 25l-13 48 q-2 6 -7 4q-6 0 -4 -7l10 -37l-37 21q-1 2 -3.5 1t-3.5 -3q-2 -1 -1 -3.5t3 -3.5l36 -22l-37 -10q-6 0 -4 -7q2 -4 5 -4h2l48 13l43 -25l-43 -25l-48 13q-5 2 -7 -4t4 -6l37 -10l-36 -22q-2 -1 -3 -3.5t1 -3.5q2 -3 4 -3t3 1l37 21l-10 -38q-2 -5 4 -7h1q4 0 6 4l13 49 l43 25v-50l-35 -36q-5 -4 0 -7q1 -2 4 -2q2 0 4 2l27 27v-42q0 -6 6 -6q5 0 5 6v42l28 -27q1 -2 4 -2q2 0 4 2q4 3 0 7l-36 36v50l43 -25l13 -49q2 -4 6 -4h1q6 2 4 7l-10 38l37 -21q1 -1 3 -1q3 0 5 3q2 5 -2 7l-37 22l37 10q6 0 4 6t-7 4z" />
<glyph unicode="S" d="M139 373v-243h243zM269 300q14 0 23.5 9.5t9.5 22.5q0 14 -10 23.5t-23 9.5t-22.5 -9.5t-9.5 -23.5t9.5 -23t22.5 -9zM321 245q0 -9 6 -15t15 -6t15 6t6 15t-6 15t-15 6t-15 -6t-6 -15zM329 310q11 0 11 11q0 10 -11 10t-11 -10q-2 -11 11 -11zM287 274q0 -13 14 -13 q13 0 13 13t-13 13q-5 0 -9.5 -4t-4.5 -9z" />
<glyph unicode="T" d="M300 330q-23 0 -44.5 18t-42.5 18t-43 -18t-45 -18v-184h262v220q-21 0 -42.5 -18t-44.5 -18zM256 318l27 -58l-27 9l-27 -9zM292 168h-22l-27 41v-41h-22v75h22l28 -42v42h22v-75h-1z" />
<glyph unicode="U" d="M363 348q-11 0 -19 -4q-18 14 -36 14q-12 0 -24 -6q-18 16 -41 16q-29 0 -49 -23q-7 3 -16 3q-19 0 -32 -13t-13 -32t13 -32.5t32 -13.5q1 0 16 3q20 -22 49 -22q23 0 41 15q13 -5 24 -5q20 0 36 14q10 -5 19 -5q19 0 32 13.5t13 32.5t-13 32t-32 13zM176 193q1 1 3 5 l5 24q-23 -4 -24 -5q-4 0 -5 -3q-11 -10 0 -21q10 -11 21 0zM115 172l-6 -3q-9 -11 0 -21q11 -11 22 0q1 1 3 5l5 24q-23 -4 -24 -5zM233 193q1 1 3 5v0l5 24q-23 -4 -25 -5q-2 0 -5 -3q-11 -10 0 -21t22 0zM171 172q-1 0 -2.5 -1.5t-2.5 -1.5q-10 -11 0 -21q11 -11 21 0 q2 1 4 5v0l5 24q-23 -4 -25 -5zM289 193q2 1 4 5l5 24q-23 -4 -25 -5q-2 0 -5 -3q-10 -10 0 -21t21 0zM228 172q-2 0 -5 -3q-11 -11 0 -21t21 0q2 1 4 5v0l4 24q-22 -4 -24 -5zM329 217q-3 0 -5 -3q-10 -10 0 -21t21 0q1 1 3 5l5 24q-23 -4 -24 -5zM284 172l-6 -3 q-9 -11 0 -21q11 -11 22 0q1 1 3 5v0l5 24q-23 -4 -24 -5z" />
<glyph unicode="V" d="M209 294q6 0 6 5q0 10 6.5 16.5t15.5 6.5q10 0 16.5 -6.5t6.5 -16.5q0 -9 -6.5 -15.5t-16.5 -6.5h-139v-11h139q14 0 24 9.5t10 23.5t-10 24t-24 10t-23.5 -10t-9.5 -24q0 -5 5 -5zM279 250q5 0 5 5q0 10 6.5 16.5t16.5 6.5t16.5 -6.5t6.5 -16.5q0 -9 -6.5 -15.5 t-16.5 -6.5h-209v-11h209q13 0 23 10t10 23q0 14 -9.5 24t-23.5 10t-23.5 -10t-9.5 -24q0 -5 5 -5zM382 245q-14 0 -23.5 -9.5t-9.5 -23.5q0 -6 5 -6t5 6q0 9 6.5 15.5t16.5 6.5t16.5 -6.5t6.5 -15.5q0 -10 -6.5 -16.5t-16.5 -6.5h-284v-11h284q14 0 23.5 10t9.5 24 t-9.5 23.5t-23.5 9.5z" />
<glyph unicode="W" d="M274 246h-61l44 96l-121 -115h61l-44 -95zM377 284h-61l44 95l-121 -114h61l-44 -96z" />
<glyph unicode="X" d="M391 226q-14 0 -62 -21q-27 -11 -50.5 -3.5t-30.5 29.5q-6 21 -0.5 43.5t16.5 33.5q9 10 22.5 10.5t17.5 -6.5q6 -9 -3 -10q-6 -2 -1 -7q2 -4 9 -3t10.5 9.5t-3 22.5t-25.5 25q-32 17 -63.5 5t-57.5 -46q-48 -62 -48 -156h269v74z" />
<glyph unicode="Y" d="M289 280q8 0 3 7l-75 75q-7 7 -13 0l-75 -75q-7 -7 3 -7h41q9 0 9 -9v-115q0 -9 10 -9h37q9 0 9 9v115q0 9 10 9h41zM372 223v121q0 10 -7 17t-17 7q-19 0 -23 -20v-4v-121q-19 -13 -19 -35q0 -17 12.5 -29.5t29.5 -12.5q18 0 30.5 12.5t12.5 29.5q0 22 -19 35zM337 345 v1q2 9 11 9q12 0 12 -11v-34h-23v34v1z" />
<glyph unicode="Z" d="M191 281h107q16 0 27.5 11.5t11.5 27.5t-11.5 27.5t-27.5 11.5q-6 0 -6 -5t6 -5q11 0 19.5 -8.5t8.5 -20.5q0 -11 -8.5 -19.5t-19.5 -8.5h-107q-6 0 -6 -6q0 -5 6 -5zM366 327q11 -1 19.5 -9.5t8.5 -19.5t-8.5 -19.5t-19.5 -9.5h-156q-6 0 -6 -5q0 -6 6 -6h156 q16 0 27.5 11.5t11.5 27.5t-11.5 27.5t-27.5 11.5q-6 0 -6 -4q0 -5 6 -5zM355 247h-189q-6 0 -6 -6q0 -5 6 -5h188h1q11 0 19.5 -8.5t8.5 -20.5q0 -11 -8.5 -19.5t-19.5 -8.5q-6 0 -6 -5t6 -5q16 0 27.5 11.5t11.5 27.5t-11.5 27.5t-27.5 11.5zM149 186q-5 0 -5 -6t5 -6 q6 0 6 6t-6 6zM209 180q0 -6 -6 -6t-6 6t6 6t6 -6zM170 163q-6 0 -6 -5q0 -6 6 -6q5 0 5 6q0 5 -5 5zM181 208q-6 0 -6 -6q0 -5 6 -5q5 0 5 5q0 6 -5 6zM114 163q-6 0 -6 -5q0 -6 6 -6q5 0 5 6q0 5 -5 5zM265 180q0 -6 -6 -6t-6 6t6 6t6 -6zM225 163q-5 0 -5 -5q0 -6 5 -6 q6 0 6 6q0 5 -6 5zM237 208q-6 0 -6 -6q0 -5 6 -5q5 0 5 5q0 6 -5 6zM125 208q-6 0 -6 -6q0 -5 6 -5q5 0 5 5q0 6 -5 6z" />
<glyph unicode="a" d="M328 349q-5 20 -21.5 32.5t-37.5 12.5q-22 0 -38 -13.5t-21 -33.5q-11 3 -19 3q-25 0 -43.5 -19.5t-18.5 -45.5t18.5 -45.5t43.5 -19.5h134q25 0 43 19.5t18 45.5t-17 44.5t-41 19.5zM325 231h-134q-20 0 -35 16t-15 38q0 21 15 37t35 16q12 0 21 -4q2 -2 5 0q2 2 2 4 q2 19 16.5 32t33.5 13q18 0 32 -11.5t17 -28.5q2 -5 6 -5h1q20 0 35 -16t15 -37q0 -22 -15 -38t-35 -16zM196 118q1 -1 4 -1t4 1l36 37q3 3 1 6q-1 3 -5 3h-14l23 21q4 4 0 8t-8 0l-33 -30q-3 -3 -1 -6q2 -4 5 -4h14l-26 -27q-4 -4 0 -8zM287 161l28 28q4 4 0 8t-8 0 l-28 -28q-3 -3 0 -8q1 -1 4 -1t4 1zM259 133l11 12q4 3 0 7q-3 5 -8 0l-11 -11q-3 -3 0 -8q1 -1 4 -1t4 1zM164 161l28 28q4 4 0 8t-8 0l-28 -28q-3 -3 0 -8q1 -1 4 -1t4 1zM136 133l11 12q5 3 0 7q-3 5 -8 0l-11 -11q-3 -3 0 -8q1 -1 4 -1t4 1z" />
<glyph unicode="b" d="M392 275q0 25 -17 43.5t-41 20.5q-6 20 -22.5 32.5t-36.5 12.5q-22 0 -39 -13.5t-21 -34.5q-9 3 -18 3q-25 0 -43.5 -19t-18.5 -45t18.5 -45t43.5 -19h134q25 0 43 19t18 45zM146 275q0 22 15 37.5t36 15.5q11 0 20 -4q3 -2 5 0q3 2 3 4q2 20 16.5 32.5t33.5 12.5 q18 0 31.5 -11.5t17.5 -29.5q0 -4 6 -4h1q20 0 35 -15.5t15 -37.5t-15 -37.5t-35 -15.5h-134q-21 0 -36 15.5t-15 37.5zM137 159q-16 0 -16 -16t16 -16t16 16t-16 16zM137 137q-6 0 -6 6q0 5 6 5t6 -5q0 -6 -6 -6zM186 192q-4 5 -7 0l-24 -23q-4 -4 0 -8q2 -2 4 -2t4 2 l23 23q5 5 0 8zM187 159q-16 0 -16 -16t16 -16t16 16t-16 16zM187 137q-6 0 -6 6q0 5 6 5q5 0 5 -5q0 -6 -5 -6zM236 192q-3 5 -8 0l-23 -23q-4 -4 0 -8q2 -2 4 -2t4 2l23 23q3 5 0 8zM271 159q-16 0 -16 -16t16 -16t16 16t-16 16zM271 137q-5 0 -5 6q0 5 5 5q6 0 6 -5 q0 -6 -6 -6zM313 192l-24 -23q-4 -4 0 -8q2 -2 4 -2t4 2l24 23q3 5 0 8q-5 5 -8 0z" />
<glyph unicode="c" d="M353 365q-6 0 -6 -5t6 -5q11 0 19.5 -8.5t8.5 -20.5q0 -11 -8.5 -19.5t-19.5 -8.5h-1h-155q-6 0 -6 -6q0 -5 6 -5h156q16 0 27.5 11.5t11.5 27.5t-11.5 27.5t-27.5 11.5zM342 197q-6 0 -6 5t6 5q11 0 19.5 8.5t8.5 20.5q0 11 -8.5 19.5t-19.5 8.5h-1h-188q-6 0 -6 6 q0 5 6 5h189q16 0 27.5 -11.5t11.5 -27.5t-11.5 -27.5t-27.5 -11.5zM192 235l-47 -81q-2 -5 2 -7q2 -1 4 -1q2 1 4 3l46 81q2 3 -2 7q-5 2 -7 -2zM220 197h-94q-5 0 -5 -5q0 -2 2 -4t4 -2l93 1q5 0 5 5t-5 5zM201 154l-47 81q-2 4 -7 2q-2 -2 -3 -4q0 -2 1 -4l47 -80 q1 -2 3.5 -2.5t3.5 0.5q5 4 2 7z" />
<glyph unicode="d" d="M327 342q-6 20 -22.5 32.5t-36.5 12.5q-22 0 -39 -13.5t-21 -34.5q-9 3 -18 3q-25 0 -43.5 -20t-18.5 -47t18.5 -47.5t43.5 -20.5h134q24 0 42.5 20.5t18.5 47.5q0 26 -17.5 45.5t-40.5 21.5zM324 219h-134q-21 0 -36 17.5t-15 38.5t15 38.5t36 17.5q12 0 20 -4q3 -2 5 0 q3 1 3 4q2 20 16.5 32.5t33.5 12.5q18 0 31.5 -11.5t17.5 -28.5q2 -5 5 -5h2q20 0 35 -18t15 -38q0 -21 -15 -38.5t-35 -17.5zM270 162l-24 -1l12 21q3 5 -2 7q-3 3 -7 -2l-12 -21l-12 21q-1 4 -7 2q-2 -2 -2 -3q0 -3 1 -4l12 -21h-24q-3 0 -4 -1t-1 -4t1 -4t4 -1h24 l-12 -21q-1 -1 -1 -4l3 -3h2h2q1 0 3 2l12 21l12 -21q2 -4 7 -2q4 4 2 7l-13 21h24q2 0 4 2t2 3q0 6 -6 6z" />
<glyph unicode="e" d="M268 123h-3q-2 2 -2 3v4l12 21h-24q-2 0 -3 1q-2 2 -2 4t2 4q1 1 3 1h24l-12 21q-2 2 0 4q0 1 2 3q1 1 3.5 0.5t3.5 -2.5l12 -21l12 21q1 2 3.5 3t3.5 -1q4 -2 2 -7l-12 -21l24 1q5 0 5 -6q0 -2 -1 -3q-2 -2 -4 -2h-24l12 -21q3 -3 -2 -7q-3 -2 -7 2l-12 21l-12 -21 q0 -2 -3 -2h-1zM177 123h-3q-2 2 -2 3q0 3 1 4l11 21h-24q-2 0 -3 1q-2 2 -2 4t2 4q1 1 3 1h24l-12 21v4q0 1 2 3q1 1 3.5 0.5t3.5 -2.5l12 -21l12 21q1 2 3.5 3t3.5 -1l3 -3q0 -3 -1 -4l-12 -21l24 1q5 0 5 -6q0 -2 -1 -3q-2 -2 -4 -2h-24l12 -21q3 -3 -2 -7q-3 -2 -7 2 l-12 21l-12 -21q0 -2 -3 -2h-1zM327 342q-6 20 -22.5 32.5t-36.5 12.5q-22 0 -39 -13.5t-21 -34.5q-9 3 -18 3q-25 0 -43.5 -20t-18.5 -47t18.5 -47.5t43.5 -20.5h134q24 0 42.5 20.5t18.5 47.5q0 26 -17.5 45.5t-40.5 21.5zM324 219h-134q-21 0 -36 17.5t-15 38.5t15 38.5 t36 17.5q12 0 20 -4q3 -2 5 0q3 1 3 4q2 20 16.5 32.5t33.5 12.5q18 0 31.5 -11.5t17.5 -28.5q2 -5 5 -5h2q20 0 35 -18t15 -38q0 -21 -15 -38.5t-35 -17.5z" />
<glyph unicode="f" d="M190 202h134q24 0 42.5 20.5t18.5 46.5t-17.5 45.5t-40.5 21.5q-6 20 -22.5 32.5t-36.5 12.5q-22 0 -39 -13.5t-21 -34.5q-9 3 -18 3q-25 0 -43.5 -20t-18.5 -47q0 -26 18.5 -46.5t43.5 -20.5zM190 325q12 0 20 -4q3 -2 5 0q3 1 3 4q2 20 16.5 32.5t33.5 12.5 q18 0 31.5 -11.5t17.5 -28.5q2 -5 6 -5h1q20 0 35 -17.5t15 -38.5q0 -20 -15 -37.5t-35 -17.5h-134q-21 0 -36 17.5t-15 37.5q0 21 15 38.5t36 17.5zM229 158q0 -6 -6 -6t-6 6q0 5 6 5t6 -5zM284 158q0 -6 -5 -6q-6 0 -6 6q0 5 6 5q5 0 5 -5zM262 180q0 -6 -5 -6q-6 0 -6 6 t6 6q5 0 5 -6zM318 180q0 -6 -6 -6q-5 0 -5 6t5 6q6 0 6 -6zM251 135q0 -5 -6 -5q-5 0 -5 5q0 6 5 6q6 0 6 -6zM206 180q0 -6 -5 -6q-6 0 -6 6t6 6q5 0 5 -6z" />
<glyph unicode="g" d="M334 339q-6 20 -22.5 32.5t-36.5 12.5q-22 0 -39 -13.5t-21 -34.5q-9 3 -18 3q-25 0 -43.5 -19t-18.5 -45t18.5 -45t43.5 -19h134q25 0 43 19t18 45q0 25 -17 43.5t-41 20.5zM331 222h-134q-21 0 -36 15.5t-15 37.5t15 37.5t35 15.5q12 0 21 -4q3 -2 5 0q3 2 3 4 q2 20 16.5 32.5t33.5 12.5q18 0 31.5 -11.5t17.5 -28.5q0 -5 6 -5h1q20 0 35 -15.5t15 -37.5t-15 -37.5t-35 -15.5zM186 193q-4 3 -7 0l-28 -28q-3 -5 0 -8q2 -2 4 -2l4 2l27 28q5 3 0 8zM223 193l-28 -28q-3 -5 0 -8q2 -2 4 -2t4 2l28 28q3 3 0 8q-4 4 -8 0zM223 148 l-11 -11q-4 -4 0 -8q2 -2 4 -2t4 2l11 11q4 4 0 8t-8 0zM179 148l-12 -11q-4 -4 0 -8l4 -2q2 0 4 2l11 11q6 4 0 8q-4 4 -7 0zM134 148l-11 -11q-4 -4 0 -8q2 -2 4 -2t4 2l11 11q4 4 0 8t-8 0zM324 164h-24l12 21q2 2 0 4q0 1 -2 3q-1 1 -3.5 0.5t-3.5 -2.5l-12 -21l-12 21 q-2 4 -7 2q-2 -2 -2 -3q-1 -3 0 -4l12 -21h-24q-2 0 -3 -1q-2 -2 -2 -4t2 -4q1 -1 3 -1h24l-12 -21v-4q0 -1 2 -3h1q1 -1 2 -1t1 1q3 0 3 2l12 21l12 -21q2 -2 5 -2h2q5 4 2 7l-12 21h24q5 0 5 5t-5 5z" />
<glyph unicode="h" d="M392 275q0 25 -17 43.5t-41 20.5q-6 20 -22.5 32.5t-36.5 12.5q-22 0 -39 -13.5t-21 -34.5q-9 3 -18 3q-25 0 -43.5 -19t-18.5 -45t18.5 -45t43.5 -19h134q25 0 43 19t18 45zM146 275q0 22 15 37.5t35 15.5q12 0 21 -5q4 0 5 1q3 2 3 4q2 19 16.5 32t33.5 13 q18 0 31.5 -11.5t17.5 -29.5q0 -4 6 -4h1q20 0 35 -15.5t15 -37.5t-15 -37.5t-35 -15.5h-134q-21 0 -36 15.5t-15 37.5zM186 192q-4 5 -7 0l-28 -28q-3 -4 0 -7q1 -2 4 -2q2 0 4 2l27 27q5 5 0 8zM231 192q-4 6 -8 0l-28 -28q-3 -4 0 -7q1 -2 4 -2t4 2l28 27q3 5 0 8z M276 192q-4 6 -8 0l-28 -28q-4 -4 0 -7q1 -2 4 -2t4 2l28 27q3 5 0 8zM313 192l-28 -28q-3 -4 0 -7q1 -2 4 -2t4 2l28 27q3 5 0 8q-5 5 -8 0zM268 148l-11 -11q-3 -5 0 -8q2 -2 4 -2t4 2l11 11q4 4 0 8t-8 0zM223 148l-11 -11q-3 -5 0 -8q2 -2 4 -2t4 2l11 11q4 4 0 8t-8 0z M179 148l-12 -11q-3 -5 0 -8l4 -2q2 0 4 2l11 11q6 4 0 8q-4 4 -7 0zM134 148l-11 -11q-3 -5 0 -8q2 -2 4 -2t4 2l11 11q4 4 0 8t-8 0z" />
<glyph unicode="i" d="M158 149l-25 -24q-3 -3 0 -7q1 -1 4 -1q2 0 3 1l25 24q3 5 0 7q-1 1 -3.5 1t-3.5 -1zM197 149l-25 -24q-4 -3 0 -7q1 -1 4 -1t4 1l24 24q4 5 0 7q-4 3 -7 0zM236 149l-24 -24q-4 -3 0 -7q1 -1 3 -1q3 0 4 1l24 24q3 5 0 7q-3 3 -7 0zM275 149l-24 -24q-3 -3 0 -7 q1 -1 3 -1q3 0 4 1l24 24q4 5 0 7q-4 3 -7 0zM289 367q4 0 4 5v20q0 4 -4 4q-6 0 -6 -4v-19q0 -6 6 -6zM391 294h-19q-5 0 -5 -4q0 -5 5 -5h19q5 0 5 5q0 4 -5 4zM286 167q22 0 38 16.5t16 38.5q0 18 -12 33q19 17 19 43q0 23 -16.5 40t-40.5 17q-18 0 -33 -11t-21 -28 q-18 -1 -32.5 -12.5t-18.5 -29.5q-7 3 -17 3q-22 0 -37.5 -16.5t-15.5 -39.5t15.5 -39t37.5 -16h118v1zM291 345q19 0 33 -14t14 -33q0 -21 -16 -35q-15 14 -33 15q-10 32 -42 38q10 29 44 29zM124 222q0 18 13 31.5t31 13.5q11 0 18 -4h5q1 1 3 4q1 16 13.5 27.5t29.5 11.5 q16 0 28 -10t15 -25q2 -4 5 -4h1q18 0 31 -13.5t13 -32.5q0 -18 -13 -31.5t-31 -13.5h-118q-17 1 -30.5 14.5t-13.5 31.5zM229 345q1 -1 3 -1q3 0 4 1q4 3 0 7l-14 14q-4 4 -7 0t0 -7zM350 344q3 0 4 1l13 14q5 3 0 7q-4 4 -6 0l-14 -14q-3 -4 0 -7q0 -1 3 -1zM352 242 l14 -14q2 -2 4 -2q1 0 3 2q4 4 0 6l-14 15q-3 3 -7 0t0 -7z" />
<glyph unicode="j" d="M290 377q4 0 4 5v20q0 4 -4 4q-6 0 -6 -4v-20q2 -5 6 -5zM393 304h-20q-4 0 -4 -5q0 -4 4 -4h20q4 0 4 4q0 5 -4 5zM287 177q22 0 38 16t16 39q0 20 -12 33q19 16 19 43q0 23 -16.5 39.5t-39.5 16.5q-40 0 -54 -38q-19 -1 -33.5 -12.5t-18.5 -29.5q-10 2 -16 2 q-22 0 -38 -16t-16 -39q0 -22 16 -38.5t38 -16.5zM292 356q19 0 33 -14t14 -33q0 -22 -16 -35q-14 12 -33 14q-10 33 -42 38q5 13 17.5 21.5t26.5 8.5zM126 232q0 19 13 32t31 13q10 0 18 -4h5q2 2 2 4q2 17 14.5 28t28.5 11t28.5 -10t15.5 -25q0 -4 4 -4h1q18 0 31 -13.5 t13 -32.5t-13 -32t-31 -13h-117q-18 0 -31 13.5t-13 32.5zM230 355q1 -1 3 -1q3 0 4 1q3 3 0 7l-14 14q-3 4 -7 0t0 -7zM351 354q3 0 4 1l14 14q3 3 0 7q-5 4 -7 0l-15 -14q-4 -4 0 -6q1 -2 4 -2zM353 251l14 -14q1 -1 4 -1q2 0 3 1q2 1 2 3.5t-2 3.5l-14 14q-4 4 -6 0 q-2 -1 -2.5 -3.5t1.5 -3.5zM199 158l-10 -10q-3 -4 0 -7q1 -1 4 -1t4 1l9 10q5 3 0 7q-4 4 -7 0zM160 158l-10 -10q-4 -4 0 -7q1 -1 4 -1q2 0 3 1l10 10q3 3 0 7t-7 0zM239 158l-10 -10q-3 -4 0 -7q1 -1 4 -1q2 0 3 1l10 10q4 3 0 7t-7 0zM175 134l-10 -10q-3 -4 0 -7 q1 -1 4 -1q2 0 3 1l10 10q4 3 0 7t-7 0zM136 134l-10 -10q-4 -4 0 -7q1 -1 4 -1q2 0 3 1l10 10q3 3 0 7t-7 0zM214 134l-10 -10q-4 -4 0 -7q1 -1 4 -1t4 1l9 10q3 3 0 7t-7 0z" />
<glyph unicode="k" d="M223 183l-11 -12q-4 -3 0 -7q1 -2 4 -2t4 2l11 11q3 3 0 8q-3 3 -8 0zM179 183l-12 -12q-3 -3 0 -7q2 -2 4 -2q3 0 4 2l12 11q3 3 0 8q-5 3 -8 0zM268 183l-11 -12q-3 -3 0 -7q1 -2 4 -2t4 2l11 11q3 3 0 8q-3 3 -8 0zM195 155l-11 -11q-3 -5 0 -8q2 -2 4 -2t4 2l11 11 q6 4 0 8q-3 3 -8 0zM151 155l-11 -11q-5 -5 0 -8q2 -2 4 -2q1 0 3 2l12 11q4 4 0 8q-5 3 -8 0zM240 155l-11 -11q-3 -5 0 -8q2 -2 4 -2t4 2l11 11q6 4 0 8q-3 3 -8 0zM385 268q0 25 -17 43.5t-41 20.5q-6 20 -22.5 32.5t-36.5 12.5q-22 0 -39 -13.5t-21 -34.5q-9 3 -18 3 q-25 0 -43.5 -19t-18.5 -45t18.5 -45t43.5 -19h134q25 0 43 19t18 45zM139 268q0 22 15 37.5t36 15.5q12 0 20 -4q3 -2 5 0q3 1 3 4q2 20 16.5 32.5t33.5 12.5q18 0 31.5 -11.5t17.5 -29.5q2 -4 6 -4h1q20 0 35 -15.5t15 -37.5t-15 -37.5t-35 -15.5h-134q-21 0 -36 15.5 t-15 37.5z" />
<glyph unicode="l" d="M333 351q-6 22 -23 36t-39 14t-39.5 -15t-22.5 -38q-9 4 -20 4q-26 0 -44.5 -20t-18.5 -48q0 -44 38 -62q4 -2 10 -4q9 -4 12 -8q0 -1 2 -7.5t7 -25.5t12 -45q1 -4 6 -4t6 4l14 56q0 1 1 1l19 -25q3 -3 6 -2q3 0 5 4l14 44l1 1l22 -96q0 -5 5 -5q6 0 6 5l22 96q1 7 14 11 v0q18 7 28.5 24.5t10.5 37.5q0 25 -15.5 44t-38.5 23zM344 232q-18 -6 -22 -19q-9 -42 -16 -70l-16 71q-2 9 -12 9q-9 0 -11 -9q-7 -21 -11 -34q-12 15 -13 15q-2 6 -10 6q-11 0 -11 -10l-9 -35q-16 53 -16 57q0 2 -1 2q-4 9 -18 14q-6 2 -8 3v0q-33 16 -33 52q0 23 15 39.5 t37 16.5q9 0 22 -5q2 -2 5 0q3 1 3 4q2 22 17 36t35 14q19 0 33 -12.5t18 -32.5q2 -4 6 -4q20 -1 34 -17.5t14 -38.5q0 -37 -32 -52z" />
<glyph unicode="m" d="M190 201h134q25 0 43 21.5t18 46.5t-17 46.5t-41 22.5q-6 20 -22.5 32.5t-36.5 12.5q-22 0 -38.5 -14t-21.5 -34q-9 3 -18 3q-26 0 -44 -21.5t-18 -47.5q0 -25 18 -46.5t44 -21.5zM190 327q10 0 20 -5q3 -2 5 0q3 2 3 5q2 19 16.5 31.5t33.5 12.5q18 0 31.5 -11.5 t17.5 -28.5q1 -4 6 -4h1q20 0 35 -18.5t15 -39.5t-15 -39t-35 -18h-134q-21 0 -36 18t-15 39t15 39.5t36 18.5zM201 179v-45q0 -6 5 -6q6 0 6 6v45q0 5 -6 5q-5 0 -5 -5zM268 179v-45q0 -6 5 -6q6 0 6 6v45q0 5 -6 5q-5 0 -5 -5zM234 179v-23q0 -5 6 -5q5 0 5 5v23q0 5 -5 5 q-6 0 -6 -5zM301 179v-23q0 -5 6 -5q5 0 5 5v23q0 5 -5 5q-6 0 -6 -5z" />
<glyph unicode="n" d="M214 186q0 5 -6 5q-5 0 -5 -5v-23q0 -5 5 -5q6 0 6 5v23zM281 186q0 5 -6 5q-5 0 -5 -5v-23q0 -5 5 -5q6 0 6 5v23zM247 186q0 5 -5 5q-6 0 -6 -5v-12q0 -5 6 -5q5 0 5 5v12zM314 186q0 5 -5 5q-6 0 -6 -5v-12q0 -5 6 -5q5 0 5 5v12zM385 273q0 25 -17 44t-41 21 q-6 20 -22.5 32t-36.5 12q-22 0 -38.5 -13.5t-21.5 -33.5q-9 3 -18 3q-25 0 -43.5 -19.5t-18.5 -45.5t18.5 -45.5t43.5 -19.5h134q25 0 43 19.5t18 45.5zM139 273q0 21 15.5 37t35.5 16q12 0 20 -4q3 -2 5 0q3 2 3 4q2 20 16.5 32.5t33.5 12.5q18 0 31.5 -11.5t17.5 -28.5 q2 -5 6 -5h1q20 0 35 -16t15 -37q0 -22 -15 -38t-35 -16h-134q-20 0 -35.5 16t-15.5 38zM241 151q-6 0 -6 -6q0 -5 6 -5q5 0 5 5q0 6 -5 6zM308 151q-6 0 -6 -6q0 -5 6 -5q5 0 5 5q0 6 -5 6zM274 140q-5 0 -5 -6q0 -5 5 -5q6 0 6 5q0 6 -6 6zM213 134q0 -5 -6 -5q-5 0 -5 5 q0 6 5 6q6 0 6 -6z" />
<glyph unicode="o" d="M198 304h-33q-6 0 -6 6t6 6h33q6 0 6 -6t-6 -6zM258 304h-33q-6 0 -6 6t6 6h33q6 0 6 -6t-6 -6zM318 304h-33q-5 0 -5 6t5 6h33q6 0 6 -6t-6 -6zM378 304h-33q-5 0 -5 6t5 6h33q6 0 6 -6t-6 -6zM168 268h-33q-6 0 -6 6q0 5 6 5h33q5 0 5 -5q0 -6 -5 -6zM228 268h-33 q-6 0 -6 6q0 5 6 5h33q6 0 6 -5q0 -6 -6 -6zM288 268h-33q-6 0 -6 6q0 5 6 5h33q6 0 6 -5q0 -6 -6 -6zM348 268h-33q-5 0 -5 6q0 5 5 5h33q6 0 6 -5q0 -6 -6 -6zM198 231h-33q-6 0 -6 6t6 6h33q6 0 6 -6t-6 -6zM258 231h-33q-6 0 -6 6t6 6h33q6 0 6 -6t-6 -6zM318 231h-33 q-5 0 -5 6t5 6h33q6 0 6 -6t-6 -6zM378 231h-33q-5 0 -5 6t5 6h33q6 0 6 -6t-6 -6zM168 195h-33q-6 0 -6 6t6 6h33q5 0 5 -6t-5 -6zM228 195h-33q-6 0 -6 6t6 6h33q6 0 6 -6t-6 -6zM288 195h-33q-6 0 -6 6t6 6h33q6 0 6 -6t-6 -6zM348 195h-33q-5 0 -5 6t5 6h33q6 0 6 -6 t-6 -6z" />
<glyph unicode="p" d="M310 269q-3 0 -4 1l-85 67l-85 -67q-4 -4 -8 1q-4 3 1 8l89 70q4 3 7 0l88 -70q5 -4 1 -8q-1 -2 -4 -2zM383 269q-3 0 -4 1l-51 36l-28 -20q-5 -3 -8 1q-4 3 1 8l32 22q3 3 6 0l55 -38q4 -4 1 -8q-1 -2 -4 -2zM193 233h-32q-6 0 -6 6t6 6h32q6 0 6 -6t-6 -6zM253 233h-32 q-6 0 -6 6t6 6h32q6 0 6 -6t-6 -6zM313 233h-32q-6 0 -6 6t6 6h32q6 0 6 -6t-6 -6zM374 233h-33q-6 0 -6 6t6 6h33q5 0 5 -6t-5 -6zM163 197h-32q-6 0 -6 6t6 6h32q6 0 6 -6t-6 -6zM223 197h-32q-6 0 -6 6t6 6h32q6 0 6 -6t-6 -6zM283 197h-32q-6 0 -6 6t6 6h32q6 0 6 -6 t-6 -6zM343 197h-32q-6 0 -6 6t6 6h32q6 0 6 -6t-6 -6zM193 161h-32q-6 0 -6 5q0 6 6 6h32q6 0 6 -6q0 -5 -6 -5zM253 161h-32q-6 0 -6 5q0 6 6 6h32q6 0 6 -6q0 -5 -6 -5zM313 161h-32q-6 0 -6 5q0 6 6 6h32q6 0 6 -6q0 -5 -6 -5zM374 161h-33q-6 0 -6 5q0 6 6 6h33 q5 0 5 -6q0 -5 -5 -5z" />
<glyph unicode="q" d="M359 131h-25q-6 0 -6 6v46l-91 -30v-16q0 -6 -6 -6h-25q-6 0 -6 6v130h-14v-130q0 -6 -6 -6h-25q-6 0 -6 6t6 6h20v130q0 6 5 6h26q5 0 5 -6v-130h14v14q0 4 4 6l103 33q2 1 6 -1q2 -2 2 -4v-48h19q6 0 6 -6t-6 -6zM342 256h-110q-5 0 -5 6t5 6h110q15 0 25 10t10 25 q0 14 -10 24.5t-25 10.5q-10 0 -18 -6q-2 -1 -5 -1q-2 1 -4 3q-6 13 -19.5 17.5t-26.5 -2.5q-5 -3 -8 2q-11 17 -30 17q-13 0 -23 -9t-11 -22q-1 -3 -4 -4q-2 -2 -5 0q-10 5 -17 5q-15 0 -25 -10.5t-10 -24.5q0 -23 21 -33q6 -2 3 -7q-2 -6 -7 -3q-29 11 -29 43 q0 19 14 32.5t33 13.5q7 0 16 -3q9 34 44 34q23 0 37 -19q15 6 30.5 1.5t24.5 -17.5q8 4 19 4q19 0 33 -13.5t14 -32.5t-13.5 -33t-33.5 -14zM206 241h-26q-5 0 -5 5q0 6 5 6h26q5 0 5 -6q0 -5 -5 -5zM206 221h-26q-5 0 -5 5q0 6 5 6h26q5 0 5 -6q0 -5 -5 -5z" />
<glyph unicode="r" d="M389 255h-25q-6 0 -6 6v45h-35v-45q0 -6 -6 -6h-37q-6 0 -6 6v97h-35v-97q0 -6 -6 -6h-37q-5 0 -5 6v65h-36v-65q0 -6 -6 -6h-25q-6 0 -6 6t6 6h19v65q0 6 6 6h47q6 0 6 -6v-65h25v97q0 6 6 6h47q6 0 6 -6v-97h25v45q0 5 6 5h47q6 0 6 -5v-45h19q6 0 6 -6t-6 -6zM192 214 h-32q-6 0 -6 6t6 6h32q6 0 6 -6t-6 -6zM252 214h-32q-6 0 -6 6t6 6h32q6 0 6 -6t-6 -6zM312 214h-32q-6 0 -6 6t6 6h32q6 0 6 -6t-6 -6zM372 214h-32q-6 0 -6 6t6 6h32q6 0 6 -6t-6 -6zM162 178h-32q-6 0 -6 6q0 5 6 5h32q6 0 6 -5q0 -6 -6 -6zM222 178h-32q-6 0 -6 6 q0 5 6 5h32q6 0 6 -5q0 -6 -6 -6zM282 178h-32q-6 0 -6 6q0 5 6 5h32q6 0 6 -5q0 -6 -6 -6zM342 178h-32q-6 0 -6 6q0 5 6 5h32q6 0 6 -5q0 -6 -6 -6zM192 141h-32q-6 0 -6 6t6 6h32q6 0 6 -6t-6 -6zM252 141h-32q-6 0 -6 6t6 6h32q6 0 6 -6t-6 -6zM312 141h-32q-6 0 -6 6 t6 6h32q6 0 6 -6t-6 -6zM372 141h-32q-6 0 -6 6t6 6h32q6 0 6 -6t-6 -6z" />
<glyph unicode="s" d="M173 154h134q25 0 43 18.5t18 43.5q0 5 -2 15q16 4 26 16.5t10 28.5q0 19 -12.5 32.5t-31.5 15.5q-5 14 -17.5 23.5t-28.5 9.5t-28.5 -10t-16.5 -25q-10 2 -16 2q-22 0 -38.5 -13.5t-21.5 -34.5q-9 3 -18 3q-25 0 -43.5 -18.5t-18.5 -44.5t18.5 -44t43.5 -18zM312 346 q14 0 24 -8t12 -21q1 -4 6 -4q15 0 26 -11t11 -26q0 -12 -8 -22t-20 -13q-16 36 -53 38q-8 26 -33 39q7 28 35 28zM173 268q10 0 20 -5q4 0 5 1q3 2 3 4q2 19 16.5 32t33.5 13q18 0 32 -11.5t17 -29.5q2 -4 6 -4h1q20 0 35 -15.5t15 -36.5t-15 -36t-35 -15h-134 q-20 0 -35.5 15t-15.5 36t15.5 36.5t35.5 15.5z" />
<glyph unicode="t" d="M131 160h-15q-4 0 -8 1.5t-6 2.5l-3 1q-28 12 -28 43q0 20 13.5 33.5t33.5 13.5q9 0 16 -3q5 14 17 23.5t27 9.5q24 0 37 -18q9 3 17 3q6 0 6 -6t-6 -6q-9 0 -16 -4q-4 -2 -8 2q-9 17 -30 17q-13 0 -23 -8.5t-11 -21.5q0 -3 -3 -5t-6 0q-8 5 -17 5q-14 0 -24.5 -10.5 t-10.5 -24.5q0 -24 22 -32q0 -2 12 -4h39q6 0 6 -6t-6 -6h-25zM326 132h-123q-24 0 -41 16.5t-17 40.5t17 41t41 17q9 0 18 -3q5 20 20.5 32.5t35.5 12.5q19 0 35 -12t22 -31q21 -3 35.5 -19t14.5 -38q0 -24 -17 -40.5t-41 -16.5zM203 236q-19 0 -32.5 -13.5t-13.5 -33.5 q0 -19 13.5 -32.5t32.5 -13.5h123q19 0 32.5 13.5t13.5 32.5q0 18 -12.5 31.5t-30.5 14.5q-4 0 -6 5q-3 16 -16 26.5t-30 10.5t-30.5 -12t-15.5 -30q0 -1 -3 -4q-3 -1 -6 0q-10 5 -19 5zM363 219l-4 2q-4 4 0 8q10 10 13 23q6 20 -5 40q-11 19 -32 25q-21 5 -40 -5.5 t-25 -31.5q-1 -5 -7 -5q-6 2 -4 8q7 25 30 38.5t49 6.5q27 -8 39 -30q14 -23 6 -50q-5 -15 -15 -27q-2 -2 -5 -2zM318 343q-4 0 -6 6v25q0 5 6 5t6 -5v-25q0 -6 -6 -6zM388 315q-3 0 -5 2q-4 4 0 8l18 17q4 4 8 0t0 -8l-17 -17q-1 -2 -4 -2zM412 249q-6 0 -6 6t6 6h24 q6 0 6 -6t-6 -6h-24zM411 183q-3 0 -4 1l-17 17q-3 5 0 9q4 4 8 0l17 -17q5 -5 0 -9q-1 -1 -4 -1zM255 317q-3 0 -4 1l-18 18q-4 4 0 8q5 3 9 0l17 -17q3 -5 0 -9q-1 -1 -4 -1z" />
<glyph unicode="u" d="M294 353q6 0 6 6v22q0 6 -6 6q-5 0 -5 -6v-22q0 -6 5 -6zM412 269h-23q-5 0 -5 -5q0 -6 5 -6h23q5 0 5 6q0 5 -5 5zM291 124q25 0 43.5 18.5t18.5 44.5q0 22 -14 39q22 19 22 48q0 27 -19 46t-46 19q-20 0 -37 -12.5t-24 -31.5q-22 0 -38 -13.5t-21 -34.5q-9 3 -19 3 q-25 0 -43 -18.5t-18 -44.5t18 -44.5t43 -18.5h134zM296 328q22 0 38 -16t16 -38q0 -24 -18 -40q-16 15 -37 16q-11 37 -48 44q14 34 49 34zM107 187q0 21 15 36.5t35 15.5q12 0 21 -4q3 -2 5 0q3 1 3 4q2 20 16.5 32.5t33.5 12.5q17 0 31 -11.5t18 -28.5q0 -5 5 -5h1 q21 0 36 -15.5t15 -36.5t-15 -36.5t-36 -15.5h-134q-20 0 -35 15.5t-15 36.5zM226 328q2 -2 4 -2t4 2q4 4 0 8l-16 16q-4 4 -8 0q-3 -5 0 -8zM364 326q2 0 4 2l16 16q3 3 0 8q-4 4 -8 0l-16 -16q-4 -4 0 -8q2 -2 4 -2zM367 209l15 -15l4 -2q2 0 4 2q5 3 0 8l-15 15 q-5 5 -8 0q-5 -3 0 -8z" />
<glyph unicode="v" d="M330 156h-147q-28 0 -48 21.5t-20 51.5t20 51.5t48 21.5q8 0 22 -4q5 25 24 41t43 16q23 0 42 -15.5t25 -38.5q25 -4 42 -24.5t17 -47.5q0 -30 -20 -51.5t-48 -21.5zM183 290q-23 0 -39.5 -18t-16.5 -43t16.5 -43t39.5 -18h147q23 0 40 18t17 43q0 24 -15.5 41.5 t-37.5 19.5q-5 0 -5 4q-4 22 -20.5 35.5t-36.5 13.5q-21 0 -37.5 -15.5t-19.5 -38.5q0 -3 -3 -5q-2 -2 -5 0q-12 6 -24 6z" />
<glyph unicode="w" d="M258 184q-31 0 -53 21.5t-22 52.5t22 52.5t53 21.5q30 0 52 -21.5t22 -52.5t-21.5 -52.5t-52.5 -21.5zM258 322q-27 0 -45.5 -18.5t-18.5 -44.5q0 -27 18.5 -45.5t45.5 -18.5q26 0 44.5 18.5t18.5 45.5q0 26 -18.5 44.5t-44.5 18.5zM252 351q-5 0 -5 6v36q0 5 5 5t5 -5 v-36q0 -6 -5 -6zM252 114q-5 0 -5 5v36q0 5 5 5t5 -5v-36q0 -5 -5 -5zM329 322q-2 0 -4 2q-3 4 0 7l25 26q5 3 8 0q4 -4 0 -8l-25 -25q-2 -2 -4 -2zM161 154q-3 0 -4 1q-4 4 0 8l25 25q4 4 8 0t0 -7l-25 -26q-2 -1 -4 -1zM355 154q-3 0 -4 1l-26 26q-3 3 0 7q4 4 8 0l25 -25 q4 -4 0 -8q-1 -1 -3 -1zM186 322q-2 0 -4 2l-25 25q-4 4 0 8t8 0l25 -26q4 -3 0 -7q-2 -2 -4 -2zM393 246h-36q-5 0 -5 5q0 6 5 6h36q5 0 5 -6q0 -5 -5 -5zM155 246h-36q-5 0 -5 5q0 6 5 6h36q5 0 5 -6q2 -5 -5 -5z" />
<glyph unicode="x" d="M401 116h-37q-6 0 -6 6v44h-35v-44q0 -6 -6 -6h-37q-6 0 -6 6v119h-35v-119q0 -6 -6 -6h-37q-5 0 -5 6v76h-36v-76q0 -6 -6 -6h-36q-6 0 -6 6t6 6h30v76q0 5 6 5h47q6 0 6 -5v-76h25v119q0 5 6 5h47q6 0 6 -5v-119h25v44q0 6 6 6h47q6 0 6 -6v-44h31q5 0 5 -6t-5 -6z M271 277q-2 0 -4 2q-6 4 0 8l9 9q4 6 8 0q6 -4 0 -8l-9 -9q-2 -2 -4 -2zM315 370q-6 0 -6 6v13q0 6 6 6t6 -6v-13q0 -6 -6 -6zM280 355q-2 0 -4 2l-9 9q-5 4 0 9q4 4 8 0l9 -10q6 -4 0 -8q-2 -2 -4 -2zM354 355q-2 0 -4 2q-6 4 0 8l9 10q4 4 8 0q3 -5 0 -9l-9 -9 q-2 -2 -4 -2zM315 262q-6 0 -6 6v13q0 6 6 6t6 -6v-13q0 -6 -6 -6zM364 323q-6 0 -6 6q0 5 6 5l13 1q6 0 6 -6t-6 -6h-13zM363 277q-2 0 -4 2l-9 9q-6 4 0 8q4 6 8 0l9 -9q4 -4 0 -8q-2 -2 -4 -2zM270 323h-13q-6 0 -6 6t6 6l13 -1q6 0 6 -5q0 -6 -6 -6zM317 296 q-13 0 -23 10t-10 23t9.5 22.5t23.5 9.5t23.5 -9.5t9.5 -22.5t-10 -23t-23 -10zM317 350q-9 0 -15 -6.5t-6 -14.5q0 -9 6 -15t15 -6q8 0 14.5 6t6.5 15q0 8 -6.5 14.5t-14.5 6.5z" />
<glyph unicode="y" d="M251 239q0 5 -5 5h-134q-6 0 -6 -5q0 -6 6 -6h134q5 0 5 6zM345 322q-6 0 -6 -5q0 -6 6 -6q20 0 35.5 -17t15.5 -39q0 -20 -15 -37.5t-35 -17.5h-134q-5 0 -5 -6t5 -6h134q24 0 42.5 20.5t18.5 46.5q0 27 -18.5 47t-43.5 20zM295 211q15 0 25.5 13t10.5 29q0 15 -11 26 t-25 11q-5 0 -5 -5q0 -6 5 -6q10 0 17.5 -8t7.5 -18q0 -11 -8 -21t-17 -10h-139q-5 0 -5 -6q0 -5 5 -5h139z" />
<glyph unicode="z" d="M257 130q-36 0 -62 25.5t-26 61.5q0 23 12 43l71 118q4 8 10 0l9 -15q1 -1 1 -3l59 -98q1 0 1 -1t1 -2q11 -20 11 -42q0 -36 -25.5 -61.5t-61.5 -25.5zM257 364l-66 -109q-10 -20 -10 -38q0 -31 22.5 -53t53.5 -22t53 22t22 53q0 21 -10 37v1zM257 157q-6 0 -6 5q0 6 6 6 q19 0 33 14t14 34q0 13 -6 23l-1 1q-2 4 2 7q4 4 8 0q0 -1 1 -3q8 -14 8 -28q0 -25 -17.5 -42t-41.5 -17z" />
<glyph unicode="&#x2000;" horiz-adv-x="203" />
<glyph unicode="&#x2001;" horiz-adv-x="406" />
<glyph unicode="&#x2002;" horiz-adv-x="203" />
<glyph unicode="&#x2003;" horiz-adv-x="406" />
<glyph unicode="&#x2004;" horiz-adv-x="135" />
<glyph unicode="&#x2005;" horiz-adv-x="101" />
<glyph unicode="&#x2006;" horiz-adv-x="67" />
<glyph unicode="&#x2007;" horiz-adv-x="67" />
<glyph unicode="&#x2008;" horiz-adv-x="50" />
<glyph unicode="&#x2009;" horiz-adv-x="81" />
<glyph unicode="&#x200a;" horiz-adv-x="22" />
<glyph unicode="&#x202f;" horiz-adv-x="81" />
<glyph unicode="&#x205f;" horiz-adv-x="101" />
<glyph unicode="&#x25fc;" horiz-adv-x="395" d="M0 395h395v-395h-395v395z" />
</font>
</defs>
</svg>
